<?xml version="1.0" encoding="UTF-8" standalone="no"?>
<svg
   viewBox="0 0 25 25"
   version="1.1"
   id="svg4"
   sodipodi:docname="trash.svg"
   inkscape:version="1.3.2 (091e20e, 2023-11-25)"
   xmlns:inkscape="http://www.inkscape.org/namespaces/inkscape"
   xmlns:sodipodi="http://sodipodi.sourceforge.net/DTD/sodipodi-0.dtd"
   xmlns="http://www.w3.org/2000/svg"
   xmlns:svg="http://www.w3.org/2000/svg">
  <sodipodi:namedview
     id="namedview4"
     pagecolor="#505050"
     bordercolor="#eeeeee"
     borderopacity="1"
     inkscape:showpageshadow="0"
     inkscape:pageopacity="0"
     inkscape:pagecheckerboard="0"
     inkscape:deskcolor="#505050"
     inkscape:zoom="9.44"
     inkscape:cx="12.5"
     inkscape:cy="12.447034"
     inkscape:window-width="1440"
     inkscape:window-height="762"
     inkscape:window-x="0"
     inkscape:window-y="25"
     inkscape:window-maximized="0"
     inkscape:current-layer="trash" />
  <defs
     id="defs1">
    <style
       id="style1">.cls-1{fill:#231f20;}</style>
  </defs>
  <g
     id="trash">
    <path
       class="cls-1"
       d="M20.5,4H16.86l-.69-2.06A1.37,1.37,0,0,0,14.87,1H10.13a1.37,1.37,0,0,0-1.3.94L8.14,4H4.5a.5.5,0,0,0,0,1h.34l1,17.59A1.45,1.45,0,0,0,7.2,24H17.8a1.45,1.45,0,0,0,1.41-1.41L20.16,5h.34a.5.5,0,0,0,0-1ZM9.77,2.26A.38.38,0,0,1,10.13,2h4.74a.38.38,0,0,1,.36.26L15.81,4H9.19Zm8.44,20.27a.45.45,0,0,1-.41.47H7.2a.45.45,0,0,1-.41-.47L5.84,5H19.16Z"
       id="path1"
       style="fill:#f9f9f9" />
  </g>
</svg>
